<?xml version="1.0" standalone="no"?><svg xmlns="http://www.w3.org/2000/svg" viewBox="0 0 1440 320"><path fill="#f4e2e5" fill-opacity="1" d="M0,160L30,160C60,160,120,160,180,165.3C240,171,300,181,360,186.7C420,192,480,192,540,181.3C600,171,660,149,720,154.7C780,160,840,192,900,213.3C960,235,1020,245,1080,224C1140,203,1200,149,1260,122.7C1320,96,1380,96,1410,96L1440,96L1440,320L1410,320C1380,320,1320,320,1260,320C1200,320,1140,320,1080,320C1020,320,960,320,900,320C840,320,780,320,720,320C660,320,600,320,540,320C480,320,420,320,360,320C300,320,240,320,180,320C120,320,60,320,30,320L0,320Z"></path></svg>